# xmcd
#
# Track frame offsets:
# 150
# 15366
# 27733
# 39355
# 52672
# 74443
# 84659
# 98544
# 123258
# 132641
# 147384
#
# Disc length: 2132 seconds
#
#
# Revision: 0
# Processed by: cddbd v1.5.1PL2 Copyright (c) Steve Scherf et al.
# Submitted via: FreeRIP 2.943 
#
DISCID=8f08520b
DTITLE=Ricky van Shelton - Don't Overlook Salvation
DYEAR=1990
DGENRE=Country
TTITLE0=Don't over look Salvation
TTITLE1=To My Mansoin In The Sky
TTITLE2=Family Bible
TTITLE3=Holy (I Bowed On My Knees and Cried Holy)
TTITLE4=Suppertime
TTITLE5=I Shall Not Be Moved
TTITLE6=Mansion over The Hilltop
TTITLE7=The Old  Rugged Cross
TTITLE8=I Wouldn't Take Nothing For My Journey Now
TTITLE9=I Saw A Man
TTITLE10=Just as I Am/He Smiled as He Ran Out to Play
EXTD=
EXTT0=
EXTT1=
EXTT2=
EXTT3=
EXTT4=
EXTT5=
EXTT6=
EXTT7=
EXTT8=
EXTT9=
EXTT10=
PLAYORDER=
